<svg xmlns:xlink="http://www.w3.org/1999/xlink" data-v-562b0aec="" width="24" height="24" viewbox="0 0 24 24" fill="currentColor" xmlns="http://www.w3.org/2000/svg"><path data-v-562b0aec="" d="M21.7 20.3L15.5 14C16.5 12.7 17 11.2 17 9.5C17 5.4 13.6 2 9.5 2C5.4 2 2 5.4 2 9.5C2 13.6 5.4 17 9.5 17C11.2 17 12.8 16.4 14 15.5L20.2 21.7C20.4 21.9 20.7 22 20.9 22C21.1 22 21.4 21.9 21.6 21.7C22.1 21.3 22.1 20.7 21.7 20.3ZM4 9.5C4 6.5 6.5 4 9.5 4C12.5 4 15 6.5 15 9.5C15 12.5 12.5 15 9.5 15C6.5 15 4 12.5 4 9.5Z" fill="#555F62"></path></svg>