<svg xmlns:xlink="http://www.w3.org/1999/xlink" data-v-174d8ed1="" width="28" height="29" viewbox="0 0 28 29" fill="none" xmlns="http://www.w3.org/2000/svg"><path data-v-174d8ed1="" d="M13.9986 18.6685C13.7326 18.6685 13.4678 18.5787 13.2519 18.3979L6.25193 12.5645C5.75726 12.1527 5.68959 11.4165 6.10259 10.9219C6.51443 10.4272 7.24943 10.3607 7.74526 10.7725L14.0114 15.9945L20.2671 10.9604C20.7688 10.5567 21.5038 10.636 21.9074 11.1377C22.3111 11.6394 22.2318 12.3732 21.7301 12.778L14.7301 18.4107C14.5166 18.5822 14.2576 18.6685 13.9986 18.6685Z" fill="#141719"></path><mask data-v-174d8ed1="" id="mask0_167_5088" maskunits="userSpaceOnUse" x="5" y="10" width="18" height="9" style="mask-type: luminance;" fill="none"><path data-v-174d8ed1="" d="M13.9986 18.6685C13.7326 18.6685 13.4678 18.5787 13.2519 18.3979L6.25193 12.5645C5.75726 12.1527 5.68959 11.4165 6.10259 10.9219C6.51443 10.4272 7.24943 10.3607 7.74526 10.7725L14.0114 15.9945L20.2671 10.9604C20.7688 10.5567 21.5038 10.636 21.9074 11.1377C22.3111 11.6394 22.2318 12.3732 21.7301 12.778L14.7301 18.4107C14.5166 18.5822 14.2576 18.6685 13.9986 18.6685Z" fill="#FFFFFF"></path></mask><g data-v-174d8ed1="" mask="url(#mask0_167_5088)" fill="none"></g></svg>