<svg xmlns:xlink="http://www.w3.org/1999/xlink" data-v-174d8ed1="" width="16" height="16" viewbox="0 0 16 16" fill="none" xmlns="http://www.w3.org/2000/svg"><path data-v-174d8ed1="" fill-rule="evenodd" clip-rule="evenodd" d="M2.66797 6.61623C2.66797 3.70356 5.06064 1.33423 8.0013 1.33423C10.942 1.33423 13.3346 3.70356 13.3346 6.61623C13.3346 10.2656 8.6353 14.3356 8.4353 14.5069C8.30997 14.6142 8.15597 14.6676 8.0013 14.6676C7.84664 14.6676 7.69264 14.6142 7.5673 14.5069C7.3673 14.3356 2.66797 10.2656 2.66797 6.61623ZM8.0013 8.66756C6.71464 8.66756 5.66797 7.62089 5.66797 6.33423C5.66797 5.04756 6.71464 4.0009 8.0013 4.0009C9.28797 4.0009 10.3346 5.04756 10.3346 6.33423C10.3346 7.62089 9.28797 8.66756 8.0013 8.66756ZM8.0013 5.33423C7.44997 5.33423 7.0013 5.7829 7.0013 6.33423C7.0013 6.88556 7.44997 7.33423 8.0013 7.33423C8.55264 7.33423 9.0013 6.88556 9.0013 6.33423C9.0013 5.7829 8.55264 5.33423 8.0013 5.33423Z" fill="#555F62"></path><mask data-v-174d8ed1="" id="mask0_167_7533" maskunits="userSpaceOnUse" x="2" y="1" width="12" height="14" style="mask-type: luminance;" fill="none"><path data-v-174d8ed1="" fill-rule="evenodd" clip-rule="evenodd" d="M2.66797 6.61623C2.66797 3.70356 5.06064 1.33423 8.0013 1.33423C10.942 1.33423 13.3346 3.70356 13.3346 6.61623C13.3346 10.2656 8.6353 14.3356 8.4353 14.5069C8.30997 14.6142 8.15597 14.6676 8.0013 14.6676C7.84664 14.6676 7.69264 14.6142 7.5673 14.5069C7.3673 14.3356 2.66797 10.2656 2.66797 6.61623ZM8.0013 8.66756C6.71464 8.66756 5.66797 7.62089 5.66797 6.33423C5.66797 5.04756 6.71464 4.0009 8.0013 4.0009C9.28797 4.0009 10.3346 5.04756 10.3346 6.33423C10.3346 7.62089 9.28797 8.66756 8.0013 8.66756ZM8.0013 5.33423C7.44997 5.33423 7.0013 5.7829 7.0013 6.33423C7.0013 6.88556 7.44997 7.33423 8.0013 7.33423C8.55264 7.33423 9.0013 6.88556 9.0013 6.33423C9.0013 5.7829 8.55264 5.33423 8.0013 5.33423Z" fill="#FFFFFF"></path></mask><g data-v-174d8ed1="" mask="url(#mask0_167_7533)" fill="none"></g></svg>