<svg xmlns:xlink="http://www.w3.org/1999/xlink" data-v-42e74cda="" width="24" height="24" viewBox="0 0 24 24" fill="currentColor" xmlns="http://www.w3.org/2000/svg"><path data-v-42e74cda="" d="M12 8C13.65 8 15 6.65 15 5C15 3.35 13.65 2 12 2C10.35 2 9 3.35 9 5C9 6.65 10.35 8 12 8ZM12 9C10.35 9 9 10.35 9 12C9 13.65 10.35 15 12 15C13.65 15 15 13.65 15 12C15 10.35 13.65 9 12 9ZM12 16C10.35 16 9 17.35 9 19C9 20.65 10.35 22 12 22C13.65 22 15 20.65 15 19C15 17.35 13.65 16 12 16Z" fill="#FFFFFF"></path></svg>