<svg xmlns:xlink="http://www.w3.org/1999/xlink" data-v-174d8ed1="" width="16" height="16" viewbox="0 0 16 16" fill="none" xmlns="http://www.w3.org/2000/svg"><path data-v-174d8ed1="" d="M11.5987 14.6676C5.93736 14.6676 1.33203 10.0622 1.33203 4.4009C1.33203 2.70956 2.70803 1.33423 4.3987 1.33423C4.57203 1.33423 4.74336 1.3489 4.90936 1.37756C5.07136 1.40356 5.2347 1.4449 5.3927 1.49956C5.61003 1.5749 5.7727 1.7569 5.82403 1.9809L6.73736 5.9569C6.78736 6.17556 6.72403 6.4049 6.5687 6.56756C6.47736 6.66223 6.47536 6.66423 5.6487 7.0969C6.31803 8.54623 7.48136 9.70556 8.90203 10.3522C9.3347 9.5249 9.33736 9.52223 9.43203 9.43156C9.59536 9.27556 9.82537 9.2149 10.0434 9.2629L14.0194 10.1756C14.2427 10.2269 14.4247 10.3896 14.5 10.6062C14.5547 10.7636 14.5954 10.9262 14.6227 11.0936C14.6507 11.2582 14.6654 11.4289 14.6654 11.6009C14.6654 13.2922 13.29 14.6676 11.5987 14.6676Z" fill="#555F62"></path><mask data-v-174d8ed1="" id="mask0_167_7524" maskunits="userSpaceOnUse" x="1" y="1" width="14" height="14" style="mask-type: luminance;" fill="none"><path data-v-174d8ed1="" d="M11.5987 14.6676C5.93736 14.6676 1.33203 10.0622 1.33203 4.4009C1.33203 2.70956 2.70803 1.33423 4.3987 1.33423C4.57203 1.33423 4.74336 1.3489 4.90936 1.37756C5.07136 1.40356 5.2347 1.4449 5.3927 1.49956C5.61003 1.5749 5.7727 1.7569 5.82403 1.9809L6.73736 5.9569C6.78736 6.17556 6.72403 6.4049 6.5687 6.56756C6.47736 6.66223 6.47536 6.66423 5.6487 7.0969C6.31803 8.54623 7.48136 9.70556 8.90203 10.3522C9.3347 9.5249 9.33736 9.52223 9.43203 9.43156C9.59536 9.27556 9.82537 9.2149 10.0434 9.2629L14.0194 10.1756C14.2427 10.2269 14.4247 10.3896 14.5 10.6062C14.5547 10.7636 14.5954 10.9262 14.6227 11.0936C14.6507 11.2582 14.6654 11.4289 14.6654 11.6009C14.6654 13.2922 13.29 14.6676 11.5987 14.6676Z" fill="#FFFFFF"></path></mask><g data-v-174d8ed1="" mask="url(#mask0_167_7524)" fill="none"></g></svg>